<svg version="1.1" xmlns="http://www.w3.org/2000/svg" xmlns:xlink="http://www.w3.org/1999/xlink" width="700" height="700" viewBox="610,96.5,700,700"><defs><linearGradient x1="724" y1="382" x2="794" y2="368" gradientUnits="userSpaceOnUse" id="color-1"><stop offset="0" stop-color="#cfcfcf"/><stop offset="1" stop-color="#000000"/></linearGradient></defs><g id="document" fill="#ffffff" fill-rule="nonzero" stroke="#000000" stroke-width="0" stroke-linecap="butt" stroke-linejoin="miter" stroke-miterlimit="10" stroke-dasharray="" stroke-dashoffset="0" font-family="none" font-weight="none" font-size="none" text-anchor="none" style="mix-blend-mode: normal"><rect x="610" y="68.92857" transform="scale(1,1.4)" width="700" height="500" id="Shape 1 1" vector-effect="non-scaling-stroke"/></g><g fill="none" fill-rule="nonzero" stroke="none" stroke-width="1" stroke-linecap="none" stroke-linejoin="none" stroke-miterlimit="10" stroke-dasharray="" stroke-dashoffset="0" font-family="none" font-weight="none" font-size="none" text-anchor="none" style="mix-blend-mode: normal"><g><g id="stage"><g id="layer1 1"><path d="M623,392" id="Path 1" fill="url(#color-1)" stroke="#000000" stroke-linecap="round" stroke-linejoin="round"/><path d="M800.78476,498" id="Path 1" fill="none" stroke="#000000" stroke-linecap="round" stroke-linejoin="round"/><path d="M809.81592,426.29997v0c5.9889,0 11.4139,1.41945 16.27502,4.25834v0v0c4.86112,2.83889 8.71112,6.72779 11.55001,11.66668v0v0c2.83889,4.93889 4.25834,10.44168 4.25834,16.50835v0v26.0167v0c0,1.71111 -0.56389,3.13056 -1.69167,4.25834v0v0c-1.12778,1.12778 -2.54723,1.69167 -4.25834,1.69167v0v0c-1.71111,0 -3.13056,-0.56389 -4.25834,-1.69167v0v0c-1.12778,-1.12778 -1.69167,-2.54723 -1.69167,-4.25834v0v-4.31667v0c-2.72223,3.34445 -6.02778,5.95001 -9.91668,7.81668v0v0c-3.88889,1.86667 -8.0889,2.8 -12.60001,2.8v0v0c-5.60001,0 -10.67501,-1.4 -15.22502,-4.2v0v0c-4.55001,-2.8 -8.12779,-6.66945 -10.73335,-11.60835v0v0c-2.60556,-4.93889 -3.90834,-10.44168 -3.90834,-16.50835v0v0c0,-6.06667 1.4,-11.56946 4.2,-16.50835v0v0c2.8,-4.93889 6.66945,-8.82779 11.60835,-11.66668v0v0c4.93889,-2.83889 10.40279,-4.25834 16.39169,-4.25834v0M809.81592,480.55003v0c3.88889,0 7.40834,-0.95278 10.55835,-2.85834v0v0c3.15,-1.90556 5.61945,-4.51112 7.40834,-7.81668v0v0c1.78889,-3.30556 2.68334,-7.01945 2.68334,-11.14168v0v0c0,-4.12223 -0.89445,-7.85556 -2.68334,-11.20001v0v0c-1.78889,-3.34445 -4.25834,-5.96945 -7.40834,-7.87501v0v0c-3.15,-1.90556 -6.66945,-2.85834 -10.55835,-2.85834v0v0c-3.88889,0 -7.40834,0.95278 -10.55835,2.85834v0v0c-3.15,1.90556 -5.6389,4.53056 -7.46668,7.87501v0v0c-1.82778,3.34445 -2.74167,7.07779 -2.74167,11.20001v0v0c0,4.12223 0.91389,7.83612 2.74167,11.14168v0v0c1.82778,3.30556 4.31667,5.91112 7.46668,7.81668v0v0c3.15,1.90556 6.66945,2.85834 10.55835,2.85834zM907.81603,482.18337v0c0.85556,0.93333 1.28333,2.1 1.28333,3.5v0v0c0,1.71111 -0.7,3.15 -2.1,4.31667v0v0c-1.16667,0.93333 -2.41111,1.4 -3.73334,1.4v0v0c-1.71111,0 -3.11111,-0.7 -4.2,-2.1v0l-22.16669,-27.4167l-5.83334,5.13334v17.85002v0c0,1.71111 -0.525,3.09167 -1.575,4.14167v0v0c-1.05,1.05 -2.43056,1.575 -4.14167,1.575v0v0c-1.71111,0 -3.09167,-0.525 -4.14167,-1.575v0v0c-1.05,-1.05 -1.575,-2.43056 -1.575,-4.14167v0v-79.68342v0c0,-1.71111 0.525,-3.09167 1.575,-4.14167v0v0c1.05,-1.05 2.43056,-1.575 4.14167,-1.575v0v0c1.71111,0 3.09167,0.525 4.14167,1.575v0v0c1.05,1.05 1.575,2.43056 1.575,4.14167v0v47.48339l28.35003,-25.3167v0c1.01111,-1.01111 2.21667,-1.51667 3.61667,-1.51667v0v0c1.63334,0 2.95556,0.62222 3.96667,1.86667v0v0c1.01111,1.01111 1.51667,2.21667 1.51667,3.61667v0v0c0,1.63334 -0.62222,2.95556 -1.86667,3.96667v0l-21.46669,19.13336zM983.29945,457.68334v0c0,1.47778 -0.50556,2.70278 -1.51667,3.675v0v0c-1.01111,0.97222 -2.29445,1.45834 -3.85,1.45834v0h-44.33338v0c0.85556,5.44445 3.325,9.8389 7.40834,13.18335v0v0c4.08334,3.34445 9.08057,5.01667 14.99168,5.01667v0v0c2.33334,0 4.76389,-0.42778 7.29167,-1.28333v0v0c2.52778,-0.85556 4.60834,-1.90556 6.24167,-3.15v0v0c1.08889,-0.85556 2.37222,-1.28333 3.85,-1.28333v0v0c1.47778,0 2.64445,0.38889 3.5,1.16667v0v0c1.4,1.16667 2.1,2.48889 2.1,3.96667v0v0c0,1.4 -0.62222,2.56667 -1.86667,3.5v0v0c-2.64445,2.1 -5.93056,3.81112 -9.85834,5.13334v0v0c-3.92778,1.32222 -7.68056,1.98334 -11.25835,1.98334v0v0c-6.37779,0 -12.09446,-1.38056 -17.15002,-4.14167v0v0c-5.05556,-2.76111 -9.00279,-6.59167 -11.84168,-11.49168v0v0c-2.83889,-4.90001 -4.25834,-10.46112 -4.25834,-16.68335v0v0c0,-6.22223 1.34167,-11.80279 4.025,-16.74169v0v0c2.68334,-4.93889 6.41667,-8.7889 11.20001,-11.55001v0v0c4.78334,-2.76111 10.20835,-4.14167 16.27502,-4.14167v0v0c5.9889,0 11.16112,1.32222 15.51668,3.96667v0v0c4.35556,2.64445 7.70001,6.3389 10.03334,11.08335v0v0c2.33334,4.74445 3.5,10.1889 3.5,16.33335v0M954.24942,436.33331v0c-5.67778,0 -10.28612,1.55556 -13.82502,4.66667v0v0c-3.53889,3.11111 -5.77501,7.27223 -6.70834,12.48335v0h38.85004v0c-0.7,-5.21112 -2.64445,-9.37223 -5.83334,-12.48335v0v0c-3.18889,-3.11111 -7.35001,-4.66667 -12.48335,-4.66667zM1084.79957,399.4666v0c1.71111,0 3.15,0.58333 4.31667,1.75v0v0c1.16667,1.16667 1.75,2.60556 1.75,4.31667v0v78.98342v0c0,1.71111 -0.60278,3.15 -1.80834,4.31667v0v0c-1.20556,1.16667 -2.625,1.75 -4.25834,1.75v0v0c-1.71111,0 -3.15,-0.58333 -4.31667,-1.75v0v0c-1.16667,-1.16667 -1.75,-2.60556 -1.75,-4.31667v0v-57.9834l-28.23337,57.51673v0c-1.32222,2.02222 -3.07223,3.03334 -5.25001,3.03334v0v0c-2.56667,0 -4.43334,-1.20556 -5.60001,-3.61667v0l-27.88337,-55.8834v56.9334v0c0,1.71111 -0.58333,3.15 -1.75,4.31667v0v0c-1.16667,1.16667 -2.60556,1.75 -4.31667,1.75v0v0c-1.71111,0 -3.15,-0.58333 -4.31667,-1.75v0v0c-1.16667,-1.16667 -1.75,-2.60556 -1.75,-4.31667v0v-78.98342v0c0,-1.71111 0.58333,-3.15 1.75,-4.31667v0v0c1.16667,-1.16667 2.60556,-1.75 4.31667,-1.75v0v0c2.33334,0 4.12223,1.08889 5.36667,3.26667v0l34.65004,69.41675l33.71671,-69.41675v0c1.24445,-2.17778 3.03334,-3.26667 5.36667,-3.26667zM1156.31632,491.75004v0c-9.02223,0 -17.0528,-1.98334 -24.09169,-5.95001v0v0c-7.0389,-3.96667 -12.50279,-9.50834 -16.39169,-16.62502v0v0c-3.88889,-7.11667 -5.83334,-15.18613 -5.83334,-24.20836v0v0c0,-9.02223 1.94445,-17.07224 5.83334,-24.15003v0v0c3.88889,-7.07779 9.35279,-12.60001 16.39169,-16.56669v0v0c7.0389,-3.96667 15.06946,-5.95001 24.09169,-5.95001v0v0c8.94445,0 16.93613,1.98334 23.97503,5.95001v0v0c7.0389,3.96667 12.52224,9.4889 16.45002,16.56669v0v0c3.92778,7.07779 5.89167,15.1278 5.89167,24.15003v0v0c0,9.02223 -1.96389,17.09169 -5.89167,24.20836v0v0c-3.92778,7.11667 -9.39168,12.65835 -16.39169,16.62502v0v0c-7.00001,3.96667 -15.01113,5.95001 -24.03336,5.95001v0M1156.31632,480.78336v0c6.61112,0 12.56113,-1.575 17.85002,-4.72501v0v0c5.28889,-3.15 9.41112,-7.44723 12.36668,-12.89168v0v0c2.95556,-5.44445 4.43334,-11.51112 4.43334,-18.20002v0v0c0,-6.6889 -1.47778,-12.75557 -4.43334,-18.20002v0v0c-2.95556,-5.44445 -7.05834,-9.72223 -12.30835,-12.83335v0v0c-5.25001,-3.11111 -11.21946,-4.66667 -17.90835,-4.66667v0v0c-6.6889,0 -12.65835,1.55556 -17.90835,4.66667v0v0c-5.25001,3.11111 -9.35279,7.3889 -12.30835,12.83335v0v0c-2.95556,5.44445 -4.43334,11.51112 -4.43334,18.20002v0v0c0,6.6889 1.47778,12.75557 4.43334,18.20002v0v0c2.95556,5.44445 7.07779,9.74168 12.36668,12.89168v0v0c5.28889,3.15 11.2389,4.72501 17.85002,4.72501z" id="CompoundPath 1" fill="#01579b" stroke="none" stroke-linecap="butt" stroke-linejoin="miter"/><path d="M801.80499,535.21556c0.33136,0.95337 0.80473,2.20008 1.46744,2.67676c0.33136,0.29334 0.75739,0.47668 1.27809,0.47668c0.71005,0 1.4201,-0.07334 2.13016,-0.22001l4.92303,-1.10004l-0.04734,-0.95337c-0.66272,0.03667 -1.37277,0.11 -2.03548,0.11c-0.37869,0 -0.75739,-0.03667 -1.08875,-0.07334c-0.80473,-0.14667 -1.51478,-0.47668 -1.94081,-1.0267c-1.70412,-2.20008 -2.98222,-5.75688 -4.02363,-8.72698c-1.56211,-4.40016 -3.69227,-10.26704 -4.40232,-13.31048h-9.18334v0.99004l4.26031,0.55002c0.42603,0.07334 0.56804,0.29334 0.56804,0.40335c0,0.11 0,0.14667 -0.04734,0.25668c-4.97036,7.62694 -10.4141,15.10722 -16.04718,22.44082l0.14201,0.36668l4.30765,-0.69669l5.53841,-9.09366c0.09467,-0.14667 0.28402,-0.29334 0.47337,-0.29334h10.65078c0.14201,0 0.42603,0.18334 0.5207,0.33001zM794.51512,517.02823c0,-0.03667 0.14201,-0.14667 0.28402,-0.14667c0.14201,0 0.28402,0.07334 0.33136,0.14667l3.31358,8.94699c0,0.03667 0.09467,0.33001 0.09467,0.33001c0,0.11 -0.09467,0.25668 -0.33136,0.25668h-8.89932c-0.14201,0 -0.33136,-0.14667 -0.33136,-0.25668c0,-0.03667 0,-0.25668 0.04734,-0.33001zM823.34323,526.30523c5.11237,3.99681 10.4141,7.84695 15.38446,11.95377l4.02363,-1.13671l0.04734,-0.40335c-2.88754,-1.98007 -10.69812,-7.99362 -15.76315,-11.9171c-0.18935,-0.14667 -0.23668,-0.22001 -0.23668,-0.33001c0,-0.11 0.23668,-0.29334 0.37869,-0.40335l13.77501,-10.78039l0.04734,-0.33001h-4.26031l-13.58566,11.95377l-0.37869,-0.03667c0,-4.14348 0.23668,-8.83699 0.33136,-9.82702c0,-0.03667 0.18935,-1.39338 0.37869,-1.8334l-0.33136,-0.25668h-7.47921l-0.37869,0.25668l-0.09467,0.62336c0.04734,0 1.94081,0.44002 2.88754,0.66002c0.33136,0.07334 0.5207,0.33001 0.66272,0.55002c0.18935,0.36668 0.23668,0.77003 0.23668,1.13671v16.3906l-0.14201,5.3902l0.5207,0.18334l3.83428,-1.06337c-0.28402,-3.5568 -0.28402,-7.15026 -0.28402,-10.74372zM866.08836,525.68188l0.28402,-1.76006l-0.28402,-0.25668c-3.64493,0.22001 -9.32535,0.29334 -11.17148,0.18334c-0.33136,-0.03667 -0.47337,-0.18334 -0.47337,-0.44002v-6.08689c0,-0.84336 0.14201,-2.01674 0.5207,-2.45676c0.14201,-0.18334 0.37869,-0.29334 0.61538,-0.33001h1.89347c0.33136,0 6.62715,0.22001 9.89339,0.36668l0.18935,-0.25668l0.09467,-1.8334c-0.61538,-0.03667 -1.32543,-0.03667 -2.17749,-0.03667c-3.36091,0 -8.14193,0.22001 -11.45551,0.22001l-7.00585,0.03667l-0.33136,0.25668l0.04734,0.73336c0.99407,0.11 2.41418,0.36668 2.79287,0.58669c0.33136,0.18334 0.71005,0.36668 0.80473,0.58669c0.42603,0.73336 0.42603,1.8334 0.42603,2.34675v18.04066c0,0.51335 0.04734,1.06337 0.28402,1.50339c0.23668,0.36668 0.5207,0.73336 0.94674,0.9167h18.36668l0.61538,-1.9434l-0.23668,-0.18334c-7.76324,0.51335 -8.85198,0.51335 -11.07681,0.51335c-1.32543,0 -2.55619,-0.03667 -3.12423,-0.22001c-0.56804,-0.22001 -1.13608,-0.51335 -1.4201,-0.95337c-0.66272,-0.9167 -0.71005,-2.71343 -0.71005,-4.10682v-5.09685c0,-0.25668 0.14201,-0.40335 0.47337,-0.44002c0.85206,-0.03667 3.83428,-0.11 5.63308,-0.11c1.84614,0 3.73961,0.11 5.58574,0.22001zM926.7268,512.7014l-13.06496,19.91072c-0.09467,0.14667 -0.37869,0.33001 -0.56804,0.33001c-0.18935,0 -0.42603,-0.36668 -0.5207,-0.51335c-3.92895,-6.49024 -8.37861,-13.82384 -10.98214,-19.72738h-8.33128l-0.33136,0.25668l-0.09467,0.8067l3.2189,0.69669c0.42603,0.11 0.75739,0.29334 0.99407,0.55002c0.37869,0.36668 0.37869,0.88003 0.28402,1.32005c-1.27809,7.26026 -2.93488,14.48386 -4.73368,21.67079l0.33136,0.11l3.55026,-0.95337c0.66272,-6.3069 1.46744,-12.61379 2.55619,-18.84735c0.04734,-0.25668 0.18935,-0.40335 0.37869,-0.40335c0.18935,0 0.37869,0.18334 0.5207,0.36668c2.98222,4.6935 7.43188,13.09048 10.98214,19.69072h1.4201l13.53832,-20.31407c0.14201,-0.18334 0.37869,-0.29334 0.5207,-0.29334c0.23668,0 0.37869,0.25668 0.37869,0.55002c0.09467,2.42009 0.47337,11.44042 0.47337,12.35712v6.67358c0,0.29334 0.42603,0.9167 1.04141,1.06337c0.61538,0.14667 1.27809,0.22001 1.94081,0.22001c1.89347,0 4.35499,-0.66002 6.4378,-1.24671v-0.88003c-0.85206,0.07334 -2.03548,0.22001 -2.65086,0.22001c-0.56804,0 -1.13608,-0.14667 -1.60945,-0.40335c-0.66272,-0.40335 -1.04141,-1.0267 -1.13608,-1.65006c-0.75739,-6.01355 -0.85206,-11.62376 -0.85206,-17.63731c0,-0.9167 0,-2.23675 0.28402,-2.78677c0.18935,-0.33001 0.61538,-0.58669 0.8994,-0.69669v-0.44002zM950.48988,527.03859c0,3.6668 0,7.37027 -0.14201,11.03707l0.5207,0.33001l4.26031,-1.06337l-0.42603,-10.56038c3.92895,-4.6935 7.43188,-8.21363 12.68626,-13.53049l-0.18935,-0.66002l-4.02363,0.62336c-1.70412,2.09008 -5.68042,7.40694 -6.05911,7.92029c-0.61538,0.84336 -2.65086,3.41012 -2.79287,3.59346c-0.14201,0.18334 -0.33136,0.33001 -0.5207,0.33001c-0.28402,0 -0.5207,-0.22001 -0.56804,-0.29334l-6.67449,-11.9171h-6.86384l-0.33136,0.25668v1.0267c0.66272,0.07334 1.27809,0.18334 1.89347,0.29334c0.42603,0.07334 0.80473,0.29334 1.08875,0.55002c0.47337,0.36668 0.80473,0.8067 1.08875,1.24671zM983.72031,526.3419c0,3.6668 0.99407,7.26026 4.35499,9.82702c2.22483,1.76006 5.72775,2.49342 8.85198,2.49342c7.43188,0 13.58566,-2.6401 15.81049,-6.23356c1.89347,-2.97011 1.94081,-5.3902 1.94081,-7.77362c0,-1.90674 -0.33136,-3.81347 -1.08875,-5.57354c-0.61538,-1.46672 -1.51478,-2.8601 -2.88754,-3.96014c-2.60352,-1.98007 -6.24846,-2.78677 -9.84605,-2.78677c-4.40232,0 -9.32535,0.73336 -12.3549,3.22678c-3.50292,2.93344 -4.78102,6.05022 -4.78102,10.78039zM988.12263,525.24186c0,-1.8334 0.33136,-3.6668 1.04141,-5.35353c0.56804,-1.39338 1.37277,-2.67676 2.6982,-3.74014c1.7988,-1.46672 4.78102,-2.34675 7.47921,-2.34675c2.50885,0 4.68634,0.51335 6.48514,1.98007c3.26624,2.49342 4.40232,6.38023 4.40232,9.90036c0,1.8334 -0.28402,3.6668 -0.99407,5.35353c-0.66272,1.46672 -1.51478,2.8601 -2.88754,3.96014c-1.89347,1.43005 -4.16564,2.16341 -6.91117,2.16341c-1.84614,0 -4.73368,-0.36668 -7.57389,-2.82344c-2.93488,-2.49342 -3.73961,-5.64687 -3.73961,-9.09366zM1028.40625,524.43516c0,-0.18334 0.18935,-6.60024 0.28402,-8.94699c0.04734,-0.69669 0.18935,-0.95337 0.56804,-0.95337h1.89347c1.27809,0 2.60352,0.07334 3.88162,0.33001c0.8994,0.18334 1.7988,0.47668 2.46151,0.99004c0.99407,0.77003 1.56211,1.87007 1.56211,2.97011c0,1.65006 -0.94674,3.19012 -2.41418,4.32682c-1.56211,1.24671 -3.83428,1.65006 -6.01177,1.79673c-0.56804,0.03667 -1.18342,0.03667 -1.7988,0.03667c-0.33136,0 -0.42603,-0.33001 -0.42603,-0.55002zM1033.51862,525.86521c3.92895,-0.33001 7.76324,-1.54006 9.27801,-4.10682c0.71005,-1.24671 0.8994,-1.76006 0.8994,-3.52013c0,-1.28338 -0.66272,-2.53009 -1.84614,-3.44679c-0.80473,-0.66002 -1.89347,-0.99004 -3.02956,-1.24671c-1.51478,-0.33001 -3.12423,-0.44002 -4.73368,-0.44002h-12.87561l-0.28402,0.22001l-0.04734,0.62336c0.04734,0 1.70412,0.36668 2.55619,0.55002c0.61538,0.14667 1.08875,0.58669 1.08875,1.10004c0.04734,2.09008 0.14201,5.75688 0.14201,6.3069c0,5.31686 -0.04734,10.67039 -0.42603,15.98725l0.5207,0.33001l3.92895,-1.06337c-0.23668,-3.52013 -0.23668,-7.07692 -0.23668,-10.59705c0.28402,0 0.71005,0.14667 0.94674,0.33001c1.37277,1.06337 7.38454,7.04026 11.78686,11.40375l4.68634,-0.95337v-0.33001l-12.44958,-10.85373zM1057.18702,516.91822c0,-1.13671 0.04734,-1.87007 0.14201,-1.98007c0.14201,-0.22001 0.23668,-0.33001 0.5207,-0.44002c0.28402,-0.11 1.08875,-0.14667 3.12423,-0.14667c2.22483,0 7.38454,0.11 8.94666,0.36668c1.98815,0.33001 3.2189,0.8067 4.26031,1.61339c2.65086,2.05341 3.45559,5.6102 3.45559,7.84695c0,3.44679 -0.99407,7.04026 -4.21298,9.53368c-1.32543,1.0267 -3.02956,1.65006 -4.78102,2.09008c-2.22483,0.55002 -4.54433,0.73336 -6.86384,0.73336c-1.27809,0 -3.12423,0 -3.73961,-0.47668c-0.71005,-0.55002 -0.80473,-2.82344 -0.85206,-4.29016zM1052.16932,537.92899h10.9348c2.84021,0 5.68042,-0.18334 8.37861,-0.8067c2.08282,-0.47668 4.44966,-1.21004 5.9171,-2.45676c3.64493,-3.04344 4.68634,-6.12356 4.68634,-10.78039c0,-1.65006 -0.18935,-3.30012 -0.80473,-4.84018c-0.47337,-1.24671 -1.18342,-2.42009 -2.36684,-3.33679c-1.46744,-1.13671 -3.45559,-1.7234 -5.49107,-2.12674c-2.84021,-0.55002 -5.77509,-0.73336 -8.70997,-0.73336h-14.81642l-0.33136,0.29334v0.69669c0.8994,0.22001 1.84614,0.40335 2.74553,0.66002c0.42603,0.14667 0.75739,0.40335 0.80473,0.77003c0.04734,0.55002 0.09467,1.13671 0.09467,1.7234v18.11399c-0.04734,1.39338 -0.09467,1.90674 -1.04141,2.45676zM1107.93207,525.68188l0.28402,-1.76006l-0.28402,-0.25668c-3.64493,0.22001 -9.32535,0.29334 -11.17148,0.18334c-0.33136,-0.03667 -0.47337,-0.18334 -0.47337,-0.44002v-6.08689c0,-0.84336 0.14201,-2.01674 0.5207,-2.45676c0.14201,-0.18334 0.37869,-0.29334 0.61538,-0.33001h1.89347c0.33136,0 6.62715,0.22001 9.89339,0.36668l0.18935,-0.25668l0.09467,-1.8334c-0.61538,-0.03667 -1.32543,-0.03667 -2.17749,-0.03667c-3.36091,0 -8.14193,0.22001 -11.45551,0.22001l-7.00585,0.03667l-0.33136,0.25668l0.04734,0.73336c0.99407,0.11 2.41418,0.36668 2.79287,0.58669c0.33136,0.18334 0.71005,0.36668 0.80473,0.58669c0.42603,0.73336 0.42603,1.8334 0.42603,2.34675v18.04066c0,0.51335 0.04734,1.06337 0.28402,1.50339c0.23668,0.36668 0.5207,0.73336 0.94674,0.9167h18.36668l0.61538,-1.9434l-0.23668,-0.18334c-7.76324,0.51335 -8.85198,0.51335 -11.07681,0.51335c-1.32543,0 -2.55619,-0.03667 -3.12423,-0.22001c-0.56804,-0.22001 -1.13608,-0.51335 -1.4201,-0.95337c-0.66272,-0.9167 -0.71005,-2.71343 -0.71005,-4.10682v-5.09685c0,-0.25668 0.14201,-0.40335 0.47337,-0.44002c0.85206,-0.03667 3.83428,-0.11 5.63308,-0.11c1.84614,0 3.73961,0.11 5.58574,0.22001zM1125.02066,524.43516c0,-0.18334 0.18935,-6.60024 0.28402,-8.94699c0.04734,-0.69669 0.18935,-0.95337 0.56804,-0.95337h1.89347c1.27809,0 2.60352,0.07334 3.88162,0.33001c0.8994,0.18334 1.7988,0.47668 2.46151,0.99004c0.99407,0.77003 1.56211,1.87007 1.56211,2.97011c0,1.65006 -0.94674,3.19012 -2.41418,4.32682c-1.56211,1.24671 -3.83428,1.65006 -6.01177,1.79673c-0.56804,0.03667 -1.18342,0.03667 -1.7988,0.03667c-0.33136,0 -0.42603,-0.33001 -0.42603,-0.55002zM1130.13303,525.86521c3.92895,-0.33001 7.76324,-1.54006 9.27801,-4.10682c0.71005,-1.24671 0.8994,-1.76006 0.8994,-3.52013c0,-1.28338 -0.66272,-2.53009 -1.84614,-3.44679c-0.80473,-0.66002 -1.89347,-0.99004 -3.02956,-1.24671c-1.51478,-0.33001 -3.12423,-0.44002 -4.73368,-0.44002h-12.87561l-0.28402,0.22001l-0.04734,0.62336c0.04734,0 1.70412,0.36668 2.55619,0.55002c0.61538,0.14667 1.08875,0.58669 1.08875,1.10004c0.04734,2.09008 0.14201,5.75688 0.14201,6.3069c0,5.31686 -0.04734,10.67039 -0.42603,15.98725l0.5207,0.33001l3.92895,-1.06337c-0.23668,-3.52013 -0.23668,-7.07692 -0.23668,-10.59705c0.28402,0 0.71005,0.14667 0.94674,0.33001c1.37277,1.06337 7.38454,7.04026 11.78686,11.40375l4.68634,-0.95337v-0.33001l-12.44958,-10.85373z" id="CompoundPath 1" fill="#01579b" stroke="none" stroke-linecap="butt" stroke-linejoin="miter"/><path d="M1015.78476,402c-0.08419,1.07006 -0.16838,2.14011 -0.25257,3.21017" id="Path 1" fill="#000000" stroke="#000000" stroke-linecap="round" stroke-linejoin="round"/><path d="M717.36697,385.59181v0v0c0.9935,-12.48976 18.30885,-18.73464 51.94605,-18.73464v0v0c10.64468,0 23.24089,0.78061 37.78862,2.34183v0v0c14.54773,1.56122 24.80211,2.34183 30.76313,2.34183v0v0c-7.52224,6.67067 -19.65718,10.006 -36.40481,10.006v0v0c-1.56122,0 -4.04498,-0.03548 -7.45128,-0.10645v0v0c-3.4063,-0.07096 -5.96102,-0.10645 -7.66417,-0.10645v0v0c-11.63819,29.09546 -22.77962,62.94555 -33.4243,101.55027v0v0c-0.42579,1.56122 -1.17092,4.22239 -2.23538,7.98351v0v0c-1.06447,3.76112 -1.8096,6.35133 -2.23538,7.77062v0l-1.49026,6.5997v0c-0.70965,2.98051 -1.27736,5.18041 -1.70315,6.5997v0l-1.06447,5.53523v0c-0.56772,2.41279 -0.95802,4.3998 -1.17092,5.96102v0v0c-0.21289,1.56122 -0.39031,3.29985 -0.53223,5.21589v0v0c-0.14193,1.91604 -0.21289,3.72564 -0.21289,5.42879v0v0c0,2.12894 0.07096,3.69016 0.21289,4.68366v0v0c-11.2124,0 -16.8186,-5.03848 -16.8186,-15.11545v0v0c0,-5.53523 2.62569,-15.89606 7.87706,-31.08247v0v0c15.75413,-45.70117 30.2309,-82.74466 43.4303,-111.13048v0v0c-25.40531,0.42579 -45.27538,1.84508 -59.61022,4.25787z" id="CompoundPath 1" fill="#01579b" stroke="none" stroke-linecap="butt" stroke-linejoin="miter"/></g></g></g></g></svg>