<svg version="1.1" xmlns="http://www.w3.org/2000/svg" xmlns:xlink="http://www.w3.org/1999/xlink" width="700" height="700" viewBox="610,96.5,700,700"><g id="document" fill="#ffffff" fill-rule="nonzero" stroke="#000000" stroke-width="0" stroke-linecap="butt" stroke-linejoin="miter" stroke-miterlimit="10" stroke-dasharray="" stroke-dashoffset="0" font-family="none" font-weight="none" font-size="none" text-anchor="none" style="mix-blend-mode: normal"><rect x="610" y="68.92857" transform="scale(1,1.4)" width="700" height="500" id="Shape 1 1" vector-effect="non-scaling-stroke"/></g><g fill="#01579b" fill-rule="nonzero" stroke="none" stroke-width="1" stroke-linecap="butt" stroke-linejoin="miter" stroke-miterlimit="10" stroke-dasharray="" stroke-dashoffset="0" font-family="none" font-weight="none" font-size="none" text-anchor="none" style="mix-blend-mode: normal"><g id="stage"><g id="layer1 1"><path d="M906.48333,377.61732v0v0c0.88249,-9.46154 16.26302,-14.19232 46.14158,-14.19232v0v0c9.45524,0 20.64395,0.59135 33.56611,1.77404v0v0c12.92216,1.18269 22.03071,1.77404 27.32565,1.77404v0v0c-6.6817,5.05333 -17.46068,7.57999 -32.33693,7.57999v0v0c-1.38677,0 -3.59299,-0.02688 -6.61867,-0.08064v0v0c-3.02568,-0.05376 -5.29494,-0.08064 -6.80777,-0.08064v0v0c-10.33773,22.0411 -20.23422,47.68404 -29.68946,76.92881v0v0c-0.37821,1.18269 -1.04008,3.19865 -1.9856,6.04786v0v0c-0.94552,2.84922 -1.60739,4.81141 -1.9856,5.88659v0l-1.32373,4.99957v0c-0.63035,2.25787 -1.13463,3.92439 -1.51284,4.99957v0l-0.94552,4.19318v0c-0.50428,1.8278 -0.85097,3.33304 -1.04008,4.51574v0v0c-0.1891,1.18269 -0.34669,2.49978 -0.47276,3.95127v0v0c-0.12607,1.45149 -0.1891,2.82234 -0.1891,4.11255v0v0c0,1.61276 0.06303,2.79546 0.1891,3.54808v0v0c-9.95952,0 -14.93928,-3.81687 -14.93928,-11.45062v0v0c0,-4.19318 2.33229,-12.04197 6.99688,-23.54634v0v0c13.99376,-34.62065 26.85289,-62.68273 38.57739,-84.18625v0v0c-22.56651,0.32255 -40.2163,1.39773 -52.94936,3.22553z" id="CompoundPath 1"/></g></g></g></svg>