<svg version="1.1" xmlns="http://www.w3.org/2000/svg" xmlns:xlink="http://www.w3.org/1999/xlink" width="700" height="700" viewBox="610,96.5,700,700"><g id="document" fill="#4168F4" fill-rule="nonzero" stroke="#000000" stroke-width="0" stroke-linecap="butt" stroke-linejoin="miter" stroke-miterlimit="10" stroke-dasharray="" stroke-dashoffset="0" font-family="none" font-weight="none" font-size="none" text-anchor="none" style="mix-blend-mode: normal"><rect x="610" y="68.92857" transform="scale(1,1.4)" width="700" height="500" id="Shape 1 1" vector-effect="non-scaling-stroke"/></g><g fill="#ffffff" fill-rule="nonzero" stroke="none" stroke-width="1" stroke-linecap="butt" stroke-linejoin="miter" stroke-miterlimit="10" stroke-dasharray="" stroke-dashoffset="0" font-family="none" font-weight="none" font-size="none" text-anchor="none" style="mix-blend-mode: normal"><g id="stage"><g id="layer1 1"><path d="M688.78388,388.01221v0v0c0.91595,-11.34221 16.87971,-17.01332 47.89127,-17.01332v0v0c9.81378,0 21.42676,0.70889 34.83893,2.12667v0v0c13.41217,1.41778 22.86612,2.12667 28.36184,2.12667v0v0c-6.93507,6.05777 -18.12279,9.08666 -33.56314,9.08666v0v0c-1.43936,0 -3.72924,-0.03222 -6.86965,-0.09667v0v0c-3.14041,-0.06444 -5.49572,-0.09667 -7.06592,-0.09667v0v0c-10.72974,26.4222 -21.0015,57.16218 -30.81528,92.21994v0v0c-0.39255,1.41778 -1.07952,3.83444 -2.06089,7.25v0v0c-0.98138,3.41555 -1.66834,5.76777 -2.06089,7.05666v0l-1.37393,5.99333v0c-0.65425,2.70666 -1.17765,4.70444 -1.57021,5.99333v0l-0.98138,5.02666v0c-0.5234,2.19111 -0.88324,3.99555 -1.07952,5.41333v0v0c-0.19628,1.41778 -0.35984,2.99666 -0.49069,4.73666v0v0c-0.13085,1.74 -0.19628,3.38333 -0.19628,4.93v0v0c0,1.93333 0.06543,3.35111 0.19628,4.25333v0v0c-10.33719,0 -15.50578,-4.57555 -15.50578,-13.72666v0v0c0,-5.02666 2.42073,-14.43555 7.2622,-28.22665v0v0c14.5244,-41.50219 27.87115,-75.14217 40.04024,-100.91993v0v0c-23.42223,0.38667 -41.7413,1.67555 -54.95719,3.86666z" id="CompoundPath 1"/><path d="M779.69257,427.77548v0c5.9889,0 11.4139,1.41945 16.27502,4.25834v0v0c4.86112,2.83889 8.71112,6.72779 11.55001,11.66668v0v0c2.83889,4.93889 4.25834,10.44168 4.25834,16.50835v0v26.0167v0c0,1.71111 -0.56389,3.13056 -1.69167,4.25834v0v0c-1.12778,1.12778 -2.54723,1.69167 -4.25834,1.69167v0v0c-1.71111,0 -3.13056,-0.56389 -4.25834,-1.69167v0v0c-1.12778,-1.12778 -1.69167,-2.54723 -1.69167,-4.25834v0v-4.31667v0c-2.72223,3.34445 -6.02778,5.95001 -9.91668,7.81668v0v0c-3.88889,1.86667 -8.0889,2.8 -12.60001,2.8v0v0c-5.60001,0 -10.67501,-1.4 -15.22502,-4.2v0v0c-4.55001,-2.8 -8.12779,-6.66945 -10.73335,-11.60835v0v0c-2.60556,-4.93889 -3.90834,-10.44168 -3.90834,-16.50835v0v0c0,-6.06667 1.4,-11.56946 4.2,-16.50835v0v0c2.8,-4.93889 6.66945,-8.82779 11.60835,-11.66668v0v0c4.93889,-2.83889 10.40279,-4.25834 16.39169,-4.25834v0M779.69257,482.02554v0c3.88889,0 7.40834,-0.95278 10.55835,-2.85834v0v0c3.15,-1.90556 5.61945,-4.51112 7.40834,-7.81668v0v0c1.78889,-3.30556 2.68334,-7.01945 2.68334,-11.14168v0v0c0,-4.12223 -0.89445,-7.85556 -2.68334,-11.20001v0v0c-1.78889,-3.34445 -4.25834,-5.96945 -7.40834,-7.87501v0v0c-3.15,-1.90556 -6.66945,-2.85834 -10.55835,-2.85834v0v0c-3.88889,0 -7.40834,0.95278 -10.55835,2.85834v0v0c-3.15,1.90556 -5.6389,4.53056 -7.46668,7.87501v0v0c-1.82778,3.34445 -2.74167,7.07779 -2.74167,11.20001v0v0c0,4.12223 0.91389,7.83612 2.74167,11.14168v0v0c1.82778,3.30556 4.31667,5.91112 7.46668,7.81668v0v0c3.15,1.90556 6.66945,2.85834 10.55835,2.85834zM877.69268,483.65887v0c0.85556,0.93333 1.28333,2.1 1.28333,3.5v0v0c0,1.71111 -0.7,3.15 -2.1,4.31667v0v0c-1.16667,0.93333 -2.41111,1.4 -3.73334,1.4v0v0c-1.71111,0 -3.11111,-0.7 -4.2,-2.1v0l-22.16669,-27.4167l-5.83334,5.13334v17.85002v0c0,1.71111 -0.525,3.09167 -1.575,4.14167v0v0c-1.05,1.05 -2.43056,1.575 -4.14167,1.575v0v0c-1.71111,0 -3.09167,-0.525 -4.14167,-1.575v0v0c-1.05,-1.05 -1.575,-2.43056 -1.575,-4.14167v0v-79.68342v0c0,-1.71111 0.525,-3.09167 1.575,-4.14167v0v0c1.05,-1.05 2.43056,-1.575 4.14167,-1.575v0v0c1.71111,0 3.09167,0.525 4.14167,1.575v0v0c1.05,1.05 1.575,2.43056 1.575,4.14167v0v47.48339l28.35003,-25.3167v0c1.01111,-1.01111 2.21667,-1.51667 3.61667,-1.51667v0v0c1.63334,0 2.95556,0.62222 3.96667,1.86667v0v0c1.01111,1.01111 1.51667,2.21667 1.51667,3.61667v0v0c0,1.63334 -0.62222,2.95556 -1.86667,3.96667v0l-21.46669,19.13336zM953.1761,459.15885v0c0,1.47778 -0.50556,2.70278 -1.51667,3.675v0v0c-1.01111,0.97222 -2.29445,1.45834 -3.85,1.45834v0h-44.33338v0c0.85556,5.44445 3.325,9.8389 7.40834,13.18335v0v0c4.08334,3.34445 9.08057,5.01667 14.99168,5.01667v0v0c2.33334,0 4.76389,-0.42778 7.29168,-1.28333v0v0c2.52778,-0.85556 4.60834,-1.90556 6.24167,-3.15v0v0c1.08889,-0.85556 2.37222,-1.28333 3.85,-1.28333v0v0c1.47778,0 2.64445,0.38889 3.5,1.16667v0v0c1.4,1.16667 2.1,2.48889 2.1,3.96667v0v0c0,1.4 -0.62222,2.56667 -1.86667,3.5v0v0c-2.64445,2.1 -5.93056,3.81112 -9.85834,5.13334v0v0c-3.92778,1.32222 -7.68056,1.98334 -11.25835,1.98334v0v0c-6.37779,0 -12.09446,-1.38056 -17.15002,-4.14167v0v0c-5.05556,-2.76111 -9.00279,-6.59167 -11.84168,-11.49168v0v0c-2.83889,-4.90001 -4.25834,-10.46112 -4.25834,-16.68335v0v0c0,-6.22223 1.34167,-11.80279 4.025,-16.74169v0v0c2.68334,-4.93889 6.41667,-8.7889 11.20001,-11.55001v0v0c4.78334,-2.76111 10.20835,-4.14167 16.27502,-4.14167v0v0c5.9889,0 11.16112,1.32222 15.51668,3.96667v0v0c4.35556,2.64445 7.70001,6.3389 10.03334,11.08335v0v0c2.33334,4.74445 3.5,10.1889 3.5,16.33335v0M924.12606,437.80882v0c-5.67778,0 -10.28612,1.55556 -13.82502,4.66667v0v0c-3.53889,3.11111 -5.77501,7.27223 -6.70834,12.48335v0h38.85004v0c-0.7,-5.21112 -2.64445,-9.37223 -5.83334,-12.48335v0v0c-3.18889,-3.11111 -7.35001,-4.66667 -12.48335,-4.66667zM1054.67621,400.94211v0c1.71111,0 3.15,0.58333 4.31667,1.75v0v0c1.16667,1.16667 1.75,2.60556 1.75,4.31667v0v78.98342v0c0,1.71111 -0.60278,3.15 -1.80834,4.31667v0v0c-1.20556,1.16667 -2.625,1.75 -4.25834,1.75v0v0c-1.71111,0 -3.15,-0.58333 -4.31667,-1.75v0v0c-1.16667,-1.16667 -1.75,-2.60556 -1.75,-4.31667v0v-57.9834l-28.23337,57.51673v0c-1.32222,2.02222 -3.07223,3.03334 -5.25001,3.03334v0v0c-2.56667,0 -4.43334,-1.20556 -5.60001,-3.61667v0l-27.88337,-55.8834v56.9334v0c0,1.71111 -0.58333,3.15 -1.75,4.31667v0v0c-1.16667,1.16667 -2.60556,1.75 -4.31667,1.75v0v0c-1.71111,0 -3.15,-0.58333 -4.31667,-1.75v0v0c-1.16667,-1.16667 -1.75,-2.60556 -1.75,-4.31667v0v-78.98342v0c0,-1.71111 0.58333,-3.15 1.75,-4.31667v0v0c1.16667,-1.16667 2.60556,-1.75 4.31667,-1.75v0v0c2.33334,0 4.12223,1.08889 5.36667,3.26667v0l34.65004,69.41675l33.71671,-69.41675v0c1.24445,-2.17778 3.03334,-3.26667 5.36667,-3.26667zM1126.19296,493.22555v0c-9.02223,0 -17.0528,-1.98334 -24.09169,-5.95001v0v0c-7.0389,-3.96667 -12.50279,-9.50834 -16.39169,-16.62502v0v0c-3.88889,-7.11667 -5.83334,-15.18613 -5.83334,-24.20836v0v0c0,-9.02223 1.94445,-17.07224 5.83334,-24.15003v0v0c3.88889,-7.07779 9.35279,-12.60001 16.39169,-16.56669v0v0c7.0389,-3.96667 15.06946,-5.95001 24.09169,-5.95001v0v0c8.94445,0 16.93613,1.98334 23.97503,5.95001v0v0c7.0389,3.96667 12.52224,9.4889 16.45002,16.56669v0v0c3.92778,7.07779 5.89167,15.1278 5.89167,24.15003v0v0c0,9.02223 -1.96389,17.09169 -5.89167,24.20836v0v0c-3.92778,7.11667 -9.39168,12.65835 -16.39169,16.62502v0v0c-7.00001,3.96667 -15.01113,5.95001 -24.03336,5.95001v0M1126.19296,482.25887v0c6.61112,0 12.56113,-1.575 17.85002,-4.72501v0v0c5.28889,-3.15 9.41112,-7.44723 12.36668,-12.89168v0v0c2.95556,-5.44445 4.43334,-11.51112 4.43334,-18.20002v0v0c0,-6.6889 -1.47778,-12.75557 -4.43334,-18.20002v0v0c-2.95556,-5.44445 -7.05834,-9.72223 -12.30835,-12.83335v0v0c-5.25001,-3.11111 -11.21946,-4.66667 -17.90835,-4.66667v0v0c-6.6889,0 -12.65835,1.55556 -17.90835,4.66667v0v0c-5.25001,3.11111 -9.35279,7.3889 -12.30835,12.83335v0v0c-2.95556,5.44445 -4.43334,11.51112 -4.43334,18.20002v0v0c0,6.6889 1.47778,12.75557 4.43334,18.20002v0v0c2.95556,5.44445 7.07779,9.74168 12.36668,12.89168v0v0c5.28889,3.15 11.2389,4.72501 17.85002,4.72501z" id="CompoundPath 1"/><path d="M759.40597,523.65651c0.34255,0.99666 0.8319,2.29999 1.51699,2.79832c0.34255,0.30667 0.78296,0.49833 1.32125,0.49833c0.73403,0 1.46806,-0.07667 2.20209,-0.23l5.08927,-1.15l-0.04894,-0.99666c-0.68509,0.03833 -1.41912,0.115 -2.10422,0.115c-0.39148,0 -0.78296,-0.03833 -1.12551,-0.07667c-0.8319,-0.15333 -1.56593,-0.49833 -2.00635,-1.07333c-1.76167,-2.29999 -3.08292,-6.01831 -4.1595,-9.1233c-1.61486,-4.59998 -3.81695,-10.7333 -4.55098,-13.91495h-9.49345v1.035l4.40418,0.575c0.44042,0.07667 0.58722,0.30667 0.58722,0.42167c0,0.115 0,0.15333 -0.04894,0.26833c-5.1382,7.97331 -10.76576,15.79328 -16.58906,23.45992l0.14681,0.38333l4.45311,-0.72833l5.72543,-9.50663c0.09787,-0.15333 0.29361,-0.30667 0.48935,-0.30667h11.01044c0.14681,0 0.44042,0.19167 0.53829,0.345zM751.86993,504.64325c0,-0.03833 0.14681,-0.15333 0.29361,-0.15333c0.14681,0 0.29361,0.07667 0.34255,0.15333l3.42547,9.3533c0,0.03833 0.09787,0.345 0.09787,0.345c0,0.115 -0.09787,0.26833 -0.34255,0.26833h-9.19983c-0.14681,0 -0.34255,-0.15333 -0.34255,-0.26833c0,-0.03833 0,-0.26833 0.04894,-0.345zM781.67152,514.34155c5.28501,4.17832 10.76576,8.2033 15.90397,12.49662l4.1595,-1.18833l0.04894,-0.42167c-2.98505,-2.06999 -11.05937,-8.35664 -16.29545,-12.45829c-0.19574,-0.15333 -0.24468,-0.23 -0.24468,-0.345c0,-0.115 0.24468,-0.30667 0.39148,-0.42167l14.24017,-11.26996l0.04894,-0.345h-4.40418l-14.04443,12.49662l-0.39148,-0.03833c0,-4.33165 0.24468,-9.2383 0.34255,-10.2733c0,-0.03833 0.19574,-1.45666 0.39148,-1.91666l-0.34255,-0.26833h-7.73178l-0.39148,0.26833l-0.09787,0.65166c0.04894,0 2.00635,0.46 2.98505,0.69c0.34255,0.07667 0.53829,0.345 0.68509,0.575c0.19574,0.38333 0.24468,0.805 0.24468,1.18833v17.13494l-0.14681,5.63498l0.53829,0.19167l3.96376,-1.11166c-0.29361,-3.71832 -0.29361,-7.47497 -0.29361,-11.23163zM825.86008,513.68988l0.29361,-1.83999l-0.29361,-0.26833c-3.76802,0.23 -9.64025,0.30667 -11.54873,0.19167c-0.34255,-0.03833 -0.48935,-0.19167 -0.48935,-0.46v-6.36331c0,-0.88166 0.14681,-2.10833 0.53829,-2.56832c0.14681,-0.19167 0.39148,-0.30667 0.63616,-0.345h1.95741c0.34255,0 6.85094,0.23 10.22747,0.38333l0.19574,-0.26833l0.09787,-1.91666c-0.63616,-0.03833 -1.37019,-0.03833 -2.25102,-0.03833c-3.47441,0 -8.41687,0.23 -11.84234,0.23l-7.24242,0.03833l-0.34255,0.26833l0.04894,0.76666c1.02764,0.115 2.4957,0.38333 2.88718,0.61333c0.34255,0.19167 0.73403,0.38333 0.8319,0.61333c0.44042,0.76666 0.44042,1.91666 0.44042,2.45332v18.85993c0,0.53666 0.04894,1.11166 0.29361,1.57166c0.24468,0.38333 0.53829,0.76666 0.97871,0.95833h18.98689l0.63616,-2.03166l-0.24468,-0.19167c-8.02539,0.53666 -9.1509,0.53666 -11.45086,0.53666c-1.37019,0 -2.64251,-0.03833 -3.22973,-0.23c-0.58722,-0.23 -1.17445,-0.53666 -1.46806,-0.99666c-0.68509,-0.95833 -0.73403,-2.83666 -0.73403,-4.29332v-5.32831c0,-0.26833 0.14681,-0.42167 0.48935,-0.46c0.88084,-0.03833 3.96376,-0.115 5.8233,-0.115c1.90848,0 3.86589,0.115 5.77436,0.23zM888.54618,500.11993l-13.50614,20.81493c-0.09787,0.15333 -0.39148,0.345 -0.58722,0.345c-0.19574,0 -0.44042,-0.38333 -0.53829,-0.53666c-4.06163,-6.78498 -8.66155,-14.45162 -11.35299,-20.62326h-8.61261l-0.34255,0.26833l-0.09787,0.84333l3.3276,0.72833c0.44042,0.115 0.78296,0.30667 1.02764,0.575c0.39148,0.38333 0.39148,0.92 0.29361,1.38c-1.32125,7.58997 -3.03399,15.14161 -4.89353,22.65492l0.34255,0.115l3.67015,-0.99666c0.68509,-6.59331 1.51699,-13.18662 2.64251,-19.70326c0.04894,-0.26833 0.19574,-0.42167 0.39148,-0.42167c0.19574,0 0.39148,0.19167 0.53829,0.38333c3.08292,4.90665 7.68284,13.68495 11.35299,20.58493h1.46806l13.99549,-21.23659c0.14681,-0.19167 0.39148,-0.30667 0.53829,-0.30667c0.24468,0 0.39148,0.26833 0.39148,0.575c0.09787,2.52999 0.48935,11.95996 0.48935,12.91829v6.97664c0,0.30667 0.44042,0.95833 1.07658,1.11166c0.63616,0.15333 1.32125,0.23 2.00635,0.23c1.95741,0 4.50205,-0.69 6.6552,-1.30333v-0.92c-0.88084,0.07667 -2.10422,0.23 -2.74038,0.23c-0.58722,0 -1.17445,-0.15333 -1.6638,-0.42167c-0.68509,-0.42167 -1.07658,-1.07333 -1.17445,-1.72499c-0.78296,-6.28664 -0.88084,-12.15162 -0.88084,-18.43827c0,-0.95833 0,-2.33833 0.29361,-2.91332c0.19574,-0.345 0.63616,-0.61333 0.92977,-0.72833v-0.46zM913.1117,515.10821c0,3.83332 0,7.70497 -0.14681,11.53829l0.53829,0.345l4.40418,-1.11166l-0.44042,-11.03996c4.06163,-4.90665 7.68284,-8.58664 13.11466,-14.14495l-0.19574,-0.69l-4.1595,0.65166c-1.76167,2.18499 -5.87223,7.74331 -6.26372,8.27997c-0.63616,0.88166 -2.74038,3.56499 -2.88718,3.75665c-0.14681,0.19167 -0.34255,0.345 -0.53829,0.345c-0.29361,0 -0.53829,-0.23 -0.58722,-0.30667l-6.89988,-12.45829h-7.09562l-0.34255,0.26833v1.07333c0.68509,0.07667 1.32125,0.19167 1.95741,0.30667c0.44042,0.07667 0.8319,0.30667 1.12551,0.575c0.48935,0.38333 0.8319,0.84333 1.12551,1.30333zM947.46427,514.37988c0,3.83332 1.02764,7.58997 4.50205,10.2733c2.29996,1.83999 5.92117,2.60666 9.1509,2.60666c7.68284,0 14.04443,-2.75999 16.34439,-6.51664c1.95741,-3.10499 2.00635,-5.63498 2.00635,-8.12664c0,-1.99333 -0.34255,-3.98665 -1.12551,-5.82665c-0.63616,-1.53333 -1.56593,-2.98999 -2.98505,-4.13999c-2.69144,-2.06999 -6.45946,-2.91332 -10.17854,-2.91332c-4.55098,0 -9.64025,0.76666 -12.77211,3.37332c-3.62121,3.06666 -4.94246,6.32498 -4.94246,11.26996zM952.01525,513.22988c0,-1.91666 0.34255,-3.83332 1.07658,-5.59665c0.58722,-1.45666 1.41912,-2.79832 2.78931,-3.90999c1.85954,-1.53333 4.94246,-2.45332 7.73178,-2.45332c2.59357,0 4.84459,0.53666 6.70413,2.06999c3.37653,2.60666 4.55098,6.66998 4.55098,10.34996c0,1.91666 -0.29361,3.83332 -1.02764,5.59665c-0.68509,1.53333 -1.56593,2.98999 -2.98505,4.13999c-1.95741,1.49499 -4.30631,2.26166 -7.14455,2.26166c-1.90848,0 -4.89353,-0.38333 -7.82965,-2.95166c-3.03399,-2.60666 -3.86589,-5.90331 -3.86589,-9.50663zM993.65918,512.38655c0,-0.19167 0.19574,-6.89998 0.29361,-9.3533c0.04894,-0.72833 0.19574,-0.99666 0.58722,-0.99666h1.95741c1.32125,0 2.69144,0.07667 4.01269,0.345c0.92977,0.19167 1.85954,0.49833 2.54463,1.035c1.02764,0.805 1.61486,1.95499 1.61486,3.10499c0,1.72499 -0.97871,3.33499 -2.4957,4.52332c-1.61486,1.30333 -3.96376,1.72499 -6.21478,1.87833c-0.58722,0.03833 -1.22338,0.03833 -1.85954,0.03833c-0.34255,0 -0.44042,-0.345 -0.44042,-0.575zM998.94419,513.88155c4.06163,-0.345 8.02539,-1.60999 9.59132,-4.29332c0.73403,-1.30333 0.92977,-1.83999 0.92977,-3.67999c0,-1.34166 -0.68509,-2.64499 -1.90848,-3.60332c-0.8319,-0.69 -1.95741,-1.035 -3.13186,-1.30333c-1.56593,-0.345 -3.22973,-0.46 -4.89353,-0.46h-13.3104l-0.29361,0.23l-0.04894,0.65166c0.04894,0 1.76167,0.38333 2.64251,0.575c0.63616,0.15333 1.12551,0.61333 1.12551,1.15c0.04894,2.18499 0.14681,6.01831 0.14681,6.59331c0,5.55831 -0.04894,11.15496 -0.44042,16.71328l0.53829,0.345l4.06163,-1.11166c-0.24468,-3.67999 -0.24468,-7.39831 -0.24468,-11.07829c0.29361,0 0.73403,0.15333 0.97871,0.345c1.41912,1.11166 7.6339,7.35997 12.18489,11.92163l4.84459,-0.99666v-0.345l-12.86998,-11.34663zM1023.41183,504.52825c0,-1.18833 0.04894,-1.95499 0.14681,-2.06999c0.14681,-0.23 0.24468,-0.345 0.53829,-0.46c0.29361,-0.115 1.12551,-0.15333 3.22973,-0.15333c2.29996,0 7.6339,0.115 9.24877,0.38333c2.05528,0.345 3.3276,0.84333 4.40418,1.68666c2.74038,2.14666 3.57228,5.86498 3.57228,8.2033c0,3.60332 -1.02764,7.35997 -4.35524,9.96663c-1.37019,1.07333 -3.13186,1.72499 -4.94246,2.18499c-2.29996,0.575 -4.69779,0.76666 -7.09562,0.76666c-1.32125,0 -3.22973,0 -3.86589,-0.49833c-0.73403,-0.575 -0.8319,-2.95166 -0.88084,-4.48498zM1018.22469,526.49317h11.30405c2.93612,0 5.87223,-0.19167 8.66155,-0.84333c2.15315,-0.49833 4.59992,-1.265 6.11691,-2.56832c3.76802,-3.18166 4.84459,-6.40164 4.84459,-11.26996c0,-1.72499 -0.19574,-3.44999 -0.8319,-5.05998c-0.48935,-1.30333 -1.22338,-2.52999 -2.44676,-3.48832c-1.51699,-1.18833 -3.57228,-1.80166 -5.67649,-2.22333c-2.93612,-0.575 -5.9701,-0.76666 -9.00409,-0.76666h-15.31674l-0.34255,0.30667v0.72833c0.92977,0.23 1.90848,0.42167 2.83825,0.69c0.44042,0.15333 0.78296,0.42167 0.8319,0.805c0.04894,0.575 0.09787,1.18833 0.09787,1.80166v18.9366c-0.04894,1.45666 -0.09787,1.99333 -1.07658,2.56832zM1075.87046,513.68988l0.29361,-1.83999l-0.29361,-0.26833c-3.76802,0.23 -9.64025,0.30667 -11.54873,0.19167c-0.34255,-0.03833 -0.48935,-0.19167 -0.48935,-0.46v-6.36331c0,-0.88166 0.14681,-2.10833 0.53829,-2.56832c0.14681,-0.19167 0.39148,-0.30667 0.63616,-0.345h1.95741c0.34255,0 6.85094,0.23 10.22747,0.38333l0.19574,-0.26833l0.09787,-1.91666c-0.63616,-0.03833 -1.37019,-0.03833 -2.25102,-0.03833c-3.47441,0 -8.41687,0.23 -11.84234,0.23l-7.24242,0.03833l-0.34255,0.26833l0.04894,0.76666c1.02764,0.115 2.4957,0.38333 2.88718,0.61333c0.34255,0.19167 0.73403,0.38333 0.8319,0.61333c0.44042,0.76666 0.44042,1.91666 0.44042,2.45332v18.85993c0,0.53666 0.04894,1.11166 0.29361,1.57166c0.24468,0.38333 0.53829,0.76666 0.97871,0.95833h18.98689l0.63616,-2.03166l-0.24468,-0.19167c-8.02539,0.53666 -9.1509,0.53666 -11.45086,0.53666c-1.37019,0 -2.64251,-0.03833 -3.22973,-0.23c-0.58722,-0.23 -1.17445,-0.53666 -1.46806,-0.99666c-0.68509,-0.95833 -0.73403,-2.83666 -0.73403,-4.29332v-5.32831c0,-0.26833 0.14681,-0.42167 0.48935,-0.46c0.88084,-0.03833 3.96376,-0.115 5.8233,-0.115c1.90848,0 3.86589,0.115 5.77436,0.23zM1093.53609,512.38655c0,-0.19167 0.19574,-6.89998 0.29361,-9.3533c0.04894,-0.72833 0.19574,-0.99666 0.58722,-0.99666h1.95741c1.32125,0 2.69144,0.07667 4.01269,0.345c0.92977,0.19167 1.85954,0.49833 2.54463,1.035c1.02764,0.805 1.61486,1.95499 1.61486,3.10499c0,1.72499 -0.97871,3.33499 -2.4957,4.52332c-1.61486,1.30333 -3.96376,1.72499 -6.21478,1.87833c-0.58722,0.03833 -1.22338,0.03833 -1.85954,0.03833c-0.34255,0 -0.44042,-0.345 -0.44042,-0.575zM1098.82111,513.88155c4.06163,-0.345 8.02539,-1.60999 9.59132,-4.29332c0.73403,-1.30333 0.92977,-1.83999 0.92977,-3.67999c0,-1.34166 -0.68509,-2.64499 -1.90848,-3.60332c-0.8319,-0.69 -1.95741,-1.035 -3.13186,-1.30333c-1.56593,-0.345 -3.22973,-0.46 -4.89353,-0.46h-13.3104l-0.29361,0.23l-0.04894,0.65166c0.04894,0 1.76167,0.38333 2.64251,0.575c0.63616,0.15333 1.12551,0.61333 1.12551,1.15c0.04894,2.18499 0.14681,6.01831 0.14681,6.59331c0,5.55831 -0.04894,11.15496 -0.44042,16.71328l0.53829,0.345l4.06163,-1.11166c-0.24468,-3.67999 -0.24468,-7.39831 -0.24468,-11.07829c0.29361,0 0.73403,0.15333 0.97871,0.345c1.41912,1.11166 7.6339,7.35997 12.18489,11.92163l4.84459,-0.99666v-0.345l-12.86998,-11.34663z" id="CompoundPath 1"/></g></g></g></svg>